<svg xmlns="http://www.w3.org/2000/svg" xmlns:xlink="http://www.w3.org/1999/xlink" width="40" zoomAndPan="magnify" viewBox="0 0 30 30.000001" height="40" preserveAspectRatio="xMidYMid meet" version="1.0"><path fill="#fefefd" d="M 4.113281 9.996094 L 4.113281 9.980469 C 4.113281 9.171875 4.230469 8.382812 4.464844 7.613281 C 4.699219 6.839844 5.039062 6.117188 5.484375 5.449219 C 5.933594 4.777344 6.46875 4.1875 7.089844 3.671875 C 7.714844 3.160156 8.398438 2.75 9.144531 2.441406 C 9.886719 2.128906 10.660156 1.9375 11.464844 1.855469 C 12.265625 1.773438 13.0625 1.8125 13.855469 1.96875 C 14.644531 2.125 15.398438 2.390625 16.109375 2.769531 C 16.820312 3.148438 17.464844 3.621094 18.035156 4.191406 C 18.484375 3.96875 18.957031 3.8125 19.449219 3.71875 C 19.945312 3.628906 20.441406 3.605469 20.941406 3.648438 C 21.441406 3.695312 21.925781 3.808594 22.394531 3.988281 C 22.859375 4.167969 23.296875 4.40625 23.699219 4.707031 C 24.101562 5.007812 24.457031 5.355469 24.761719 5.753906 C 25.066406 6.152344 25.3125 6.582031 25.5 7.050781 C 25.683594 7.515625 25.804688 7.996094 25.859375 8.496094 C 25.910156 8.996094 25.894531 9.492188 25.8125 9.988281 C 26.0625 10.011719 26.296875 10.082031 26.519531 10.203125 C 26.738281 10.324219 26.925781 10.488281 27.082031 10.6875 C 27.234375 10.886719 27.34375 11.109375 27.402344 11.351562 C 27.464844 11.597656 27.472656 11.84375 27.433594 12.09375 C 26.613281 17.027344 24.585938 20.148438 21.351562 21.460938 L 21.351562 22.679688 C 21.351562 23.042969 21.28125 23.390625 21.144531 23.722656 C 21.003906 24.054688 20.808594 24.351562 20.554688 24.605469 C 20.296875 24.859375 20.003906 25.058594 19.671875 25.195312 C 19.335938 25.335938 18.988281 25.402344 18.628906 25.402344 L 11.371094 25.402344 C 11.011719 25.402344 10.664062 25.335938 10.328125 25.195312 C 9.996094 25.058594 9.703125 24.859375 9.445312 24.605469 C 9.191406 24.351562 8.996094 24.054688 8.855469 23.722656 C 8.71875 23.390625 8.648438 23.042969 8.648438 22.679688 L 8.648438 21.460938 C 5.414062 20.148438 3.386719 17.027344 2.566406 12.09375 C 2.527344 11.851562 2.535156 11.609375 2.59375 11.371094 C 2.648438 11.132812 2.75 10.914062 2.898438 10.71875 C 3.042969 10.519531 3.222656 10.359375 3.433594 10.234375 C 3.644531 10.109375 3.871094 10.03125 4.113281 9.996094 Z M 5.925781 9.980469 L 7.742188 9.980469 C 7.742188 9.683594 7.769531 9.386719 7.828125 9.09375 C 7.886719 8.800781 7.972656 8.519531 8.085938 8.242188 C 8.203125 7.96875 8.339844 7.707031 8.507812 7.460938 C 8.671875 7.210938 8.859375 6.984375 9.070312 6.773438 C 9.28125 6.5625 9.511719 6.375 9.757812 6.207031 C 10.003906 6.042969 10.265625 5.902344 10.542969 5.789062 C 10.816406 5.675781 11.101562 5.589844 11.394531 5.53125 C 11.683594 5.472656 11.980469 5.445312 12.277344 5.445312 C 12.574219 5.445312 12.871094 5.472656 13.164062 5.53125 C 13.457031 5.589844 13.738281 5.675781 14.015625 5.789062 C 14.289062 5.902344 14.550781 6.042969 14.796875 6.207031 C 15.046875 6.375 15.273438 6.5625 15.484375 6.773438 C 15.695312 6.984375 15.882812 7.210938 16.050781 7.460938 C 16.214844 7.707031 16.355469 7.96875 16.46875 8.242188 C 16.582031 8.519531 16.667969 8.800781 16.726562 9.09375 C 16.785156 9.386719 16.816406 9.683594 16.816406 9.980469 L 18.628906 9.980469 C 18.628906 9.5625 18.589844 9.148438 18.507812 8.742188 C 18.425781 8.332031 18.304688 7.933594 18.144531 7.550781 C 17.984375 7.164062 17.789062 6.796875 17.558594 6.453125 C 17.328125 6.105469 17.0625 5.785156 16.769531 5.488281 C 16.472656 5.195312 16.152344 4.929688 15.804688 4.699219 C 15.460938 4.46875 15.09375 4.273438 14.707031 4.113281 C 14.324219 3.953125 13.925781 3.832031 13.515625 3.75 C 13.109375 3.667969 12.695312 3.628906 12.277344 3.628906 C 11.859375 3.628906 11.449219 3.667969 11.039062 3.75 C 10.628906 3.832031 10.234375 3.953125 9.847656 4.113281 C 9.460938 4.273438 9.097656 4.46875 8.75 4.699219 C 8.402344 4.929688 8.082031 5.195312 7.789062 5.488281 C 7.492188 5.785156 7.230469 6.105469 6.996094 6.453125 C 6.765625 6.796875 6.570312 7.164062 6.410156 7.550781 C 6.25 7.933594 6.128906 8.332031 6.050781 8.742188 C 5.96875 9.148438 5.925781 9.5625 5.925781 9.980469 Z M 9.554688 9.980469 L 15 9.980469 C 15 9.617188 14.929688 9.273438 14.792969 8.9375 C 14.65625 8.605469 14.457031 8.308594 14.203125 8.054688 C 13.949219 7.800781 13.652344 7.601562 13.320312 7.464844 C 12.988281 7.328125 12.640625 7.257812 12.277344 7.257812 C 11.917969 7.257812 11.570312 7.328125 11.238281 7.464844 C 10.902344 7.601562 10.609375 7.800781 10.355469 8.054688 C 10.097656 8.308594 9.902344 8.605469 9.761719 8.9375 C 9.625 9.273438 9.554688 9.617188 9.554688 9.980469 Z M 22.015625 9.980469 L 23.957031 9.980469 C 24.027344 9.710938 24.0625 9.4375 24.070312 9.164062 C 24.078125 8.886719 24.050781 8.613281 23.996094 8.339844 C 23.9375 8.070312 23.851562 7.808594 23.738281 7.558594 C 23.621094 7.304688 23.480469 7.070312 23.308594 6.851562 C 23.140625 6.632812 22.949219 6.4375 22.734375 6.261719 C 22.519531 6.085938 22.289062 5.9375 22.039062 5.816406 C 21.792969 5.695312 21.53125 5.601562 21.261719 5.539062 C 20.992188 5.476562 20.71875 5.445312 20.445312 5.445312 C 20.007812 5.445312 19.59375 5.519531 19.210938 5.660156 C 19.53125 6.175781 19.796875 6.730469 20 7.3125 C 20.351562 7.226562 20.699219 7.242188 21.042969 7.363281 C 21.386719 7.484375 21.667969 7.691406 21.886719 7.980469 C 22.105469 8.269531 22.226562 8.597656 22.25 8.960938 C 22.273438 9.324219 22.195312 9.664062 22.015625 9.980469 Z M 19.535156 21.773438 L 10.464844 21.773438 L 10.464844 22.679688 C 10.464844 22.933594 10.550781 23.144531 10.730469 23.324219 C 10.90625 23.5 11.121094 23.589844 11.371094 23.589844 L 18.628906 23.589844 C 18.878906 23.589844 19.09375 23.5 19.269531 23.324219 C 19.449219 23.144531 19.535156 22.933594 19.535156 22.679688 Z M 9.824219 19.960938 L 20.175781 19.960938 C 23.054688 19.035156 24.875 16.417969 25.644531 11.792969 L 4.355469 11.792969 C 5.125 16.417969 6.945312 19.035156 9.824219 19.960938 Z M 9.824219 19.960938 " fill-opacity="1" fill-rule="nonzero"/></svg>